<svg width="14" height="14" viewBox="0 0 14 14" fill="none" xmlns="http://www.w3.org/2000/svg">
<g clip-path="url(#clip0_2281_195)">
<path d="M8.33512 4.84333L3.43512 9.65583C3.3124 9.77641 3.14724 9.84397 2.9752 9.84397C2.80316 9.84397 2.638 9.77641 2.51528 9.65583L0.415277 7.59357C0.353766 7.53317 0.304754 7.46125 0.271038 7.38191C0.237323 7.30257 0.219565 7.21737 0.218777 7.13116C0.217188 6.95707 0.284822 6.78948 0.406801 6.66525C0.467198 6.60374 0.53912 6.55472 0.61846 6.52101C0.697799 6.48729 0.783003 6.46954 0.869205 6.46875C1.0433 6.46716 1.21089 6.53479 1.33512 6.65677L2.97575 8.26787L7.41582 3.90708C7.53998 3.78511 7.7075 3.71744 7.88155 3.71898C8.05559 3.72052 8.22189 3.79113 8.34387 3.91529C8.46585 4.03944 8.53351 4.20697 8.53197 4.38101C8.53044 4.55505 8.45982 4.72136 8.33567 4.84333H8.33512ZM13.5933 3.91365C13.5329 3.85193 13.4609 3.80274 13.3814 3.76891C13.3019 3.73508 13.2166 3.71728 13.1302 3.71652C13.0438 3.71576 12.9581 3.73205 12.8781 3.76447C12.798 3.79689 12.7251 3.8448 12.6636 3.90544L8.2252 8.26787L7.79426 7.84458C7.67011 7.72261 7.50258 7.65494 7.32854 7.65648C7.1545 7.65802 6.98819 7.72863 6.86622 7.85279C6.74424 7.97694 6.67657 8.14447 6.67811 8.31851C6.67965 8.49255 6.75026 8.65886 6.87442 8.78083L7.76528 9.65583C7.888 9.77641 8.05316 9.84397 8.2252 9.84397C8.39724 9.84397 8.5624 9.77641 8.68512 9.65583L13.5851 4.84333C13.6466 4.78294 13.6956 4.71102 13.7293 4.6317C13.7629 4.55237 13.7807 4.46719 13.7814 4.38101C13.7822 4.29483 13.766 4.20935 13.7337 4.12944C13.7014 4.04953 13.6537 3.97676 13.5933 3.91529V3.91365Z" fill="black"/>
</g>
<defs>
<clipPath id="clip0_2281_195">
<rect width="14" height="14" fill="white"/>
</clipPath>
</defs>
</svg>
