<svg width="10" height="10" viewBox="0 0 10 10" fill="none" xmlns="http://www.w3.org/2000/svg">
<path d="M9.08284 3.14456L4.08284 8.14456C4.0393 8.18826 3.98755 8.22294 3.93057 8.2466C3.87359 8.27025 3.81251 8.28243 3.75081 8.28243C3.68912 8.28243 3.62803 8.27025 3.57105 8.2466C3.51408 8.22294 3.46233 8.18826 3.41878 8.14456L1.23128 5.95706C1.18768 5.91346 1.15309 5.8617 1.12949 5.80473C1.1059 5.74776 1.09375 5.6867 1.09375 5.62503C1.09375 5.56337 1.1059 5.50231 1.12949 5.44534C1.15309 5.38837 1.18768 5.3366 1.23128 5.293C1.27488 5.2494 1.32665 5.21481 1.38362 5.19121C1.44059 5.16761 1.50165 5.15547 1.56331 5.15547C1.62498 5.15547 1.68604 5.16761 1.74301 5.19121C1.79998 5.21481 1.85174 5.2494 1.89534 5.293L3.7512 7.14886L8.41956 2.48128C8.50762 2.39322 8.62706 2.34375 8.75159 2.34375C8.87613 2.34375 8.99556 2.39322 9.08362 2.48128C9.17169 2.56934 9.22116 2.68878 9.22116 2.81331C9.22116 2.93785 9.17169 3.05728 9.08362 3.14534L9.08284 3.14456Z" fill="white"/>
</svg>
