<svg width="16" height="16" viewBox="0 0 16 16" fill="none" xmlns="http://www.w3.org/2000/svg">
<path d="M13.0326 11.9692C13.1734 12.1101 13.2526 12.3012 13.2526 12.5005C13.2526 12.6997 13.1734 12.8908 13.0326 13.0317C12.8917 13.1726 12.7006 13.2518 12.5013 13.2518C12.302 13.2518 12.1109 13.1726 11.9701 13.0317L8.00193 9.06237L4.03255 13.0305C3.89165 13.1714 3.70056 13.2505 3.5013 13.2505C3.30204 13.2505 3.11095 13.1714 2.97005 13.0305C2.82915 12.8896 2.75 12.6985 2.75 12.4992C2.75 12.3 2.82915 12.1089 2.97005 11.968L6.93943 7.99987L2.9713 4.03049C2.8304 3.88959 2.75125 3.6985 2.75125 3.49924C2.75125 3.29998 2.8304 3.10889 2.9713 2.96799C3.1122 2.82709 3.30329 2.74794 3.50255 2.74794C3.70181 2.74794 3.8929 2.82709 4.0338 2.96799L8.00193 6.93737L11.9713 2.96737C12.1122 2.82647 12.3033 2.74731 12.5026 2.74731C12.7018 2.74731 12.8929 2.82647 13.0338 2.96737C13.1747 3.10826 13.2539 3.29936 13.2539 3.49862C13.2539 3.69787 13.1747 3.88897 13.0338 4.02987L9.06443 7.99987L13.0326 11.9692Z" fill="#575E74"/>
</svg>
