<svg width="14" height="14" viewBox="0 0 14 14" fill="none" xmlns="http://www.w3.org/2000/svg">
<g clip-path="url(#clip0_2281_187)">
<path d="M12.7291 7.54035C12.5361 7.39254 12.3115 7.29162 12.0728 7.24558C12.9166 6.28581 13.3438 5.32495 13.3438 4.37503C13.3438 2.80714 12.081 1.53128 10.5295 1.53128C9.78237 1.5277 9.06409 1.81961 8.53125 2.34339C7.99841 1.81961 7.28013 1.5277 6.53297 1.53128C4.98148 1.53128 3.71875 2.80714 3.71875 4.37503C3.71875 4.93011 3.8675 5.48519 4.16828 6.05394C3.9282 6.15302 3.71016 6.29875 3.5268 6.48269L2.35156 7.65628H1.09375C0.803669 7.65628 0.52547 7.77152 0.320352 7.97663C0.115234 8.18175 0 8.45995 0 8.75003L0 10.9375C0 11.2276 0.115234 11.5058 0.320352 11.7109C0.52547 11.916 0.803669 12.0313 1.09375 12.0313H6.5625C6.61616 12.0313 6.66961 12.0247 6.72164 12.0116L10.2216 11.1366C10.2551 11.1284 10.2879 11.1174 10.3195 11.1038L12.4425 10.1993C12.4551 10.1943 12.4671 10.1889 12.4791 10.1828C12.7166 10.0641 12.9199 9.88683 13.0699 9.66781C13.2199 9.44879 13.3118 9.19519 13.3368 8.93089C13.3618 8.66659 13.3191 8.40027 13.2128 8.15701C13.1065 7.91374 12.94 7.70153 12.7291 7.54035ZM6.53297 2.84378C6.82865 2.83922 7.11897 2.92296 7.3668 3.08428C7.61463 3.24561 7.80871 3.47719 7.92422 3.74941C7.97366 3.86977 8.05777 3.97272 8.16586 4.04517C8.27394 4.11762 8.40113 4.1563 8.53125 4.1563C8.66137 4.1563 8.78856 4.11762 8.89664 4.04517C9.00473 3.97272 9.08884 3.86977 9.13828 3.74941C9.25379 3.47719 9.44787 3.24561 9.6957 3.08428C9.94353 2.92296 10.2339 2.83922 10.5295 2.84378C11.3433 2.84378 12.0312 3.54488 12.0312 4.37503C12.0312 5.36269 11.2109 6.49909 9.65891 7.66667L9.40625 7.72519C9.40625 7.70222 9.40625 7.67925 9.40625 7.65628C9.40625 7.19215 9.22188 6.74703 8.89369 6.41885C8.5655 6.09066 8.12038 5.90628 7.65625 5.90628H5.61695C5.21828 5.34628 5.03125 4.85464 5.03125 4.37503C5.03125 3.54488 5.71922 2.84378 6.53297 2.84378ZM1.3125 8.96878H1.96875V10.7188H1.3125V8.96878ZM11.9044 9.00214L9.85305 9.87714L6.48156 10.7188H3.28125V8.58597L4.45484 7.41238C4.51551 7.35105 4.58773 7.30237 4.66733 7.26914C4.74693 7.23591 4.83233 7.21879 4.91859 7.21878H7.65625C7.77228 7.21878 7.88356 7.26488 7.96561 7.34692C8.04766 7.42897 8.09375 7.54025 8.09375 7.65628C8.09375 7.77231 8.04766 7.88359 7.96561 7.96564C7.88356 8.04769 7.77228 8.09378 7.65625 8.09378H6.125C5.95095 8.09378 5.78403 8.16292 5.66096 8.28599C5.53789 8.40906 5.46875 8.57598 5.46875 8.75003C5.46875 8.92408 5.53789 9.091 5.66096 9.21407C5.78403 9.33714 5.95095 9.40628 6.125 9.40628H7.875C7.92449 9.40629 7.97383 9.40079 8.02211 9.38988L11.6862 8.54714L11.7119 8.54058C11.7492 8.53042 11.7884 8.529 11.8264 8.53642C11.8644 8.54385 11.9002 8.55993 11.931 8.58341C11.9617 8.60689 11.9867 8.63714 12.0039 8.67182C12.0211 8.7065 12.0301 8.74468 12.0302 8.78339C12.0304 8.82772 12.0189 8.87133 11.9968 8.90976C11.9747 8.94819 11.9428 8.98007 11.9044 9.00214Z" fill="black"/>
</g>
<defs>
<clipPath id="clip0_2281_187">
<rect width="14" height="14" fill="white"/>
</clipPath>
</defs>
</svg>
