<svg width="14" height="14" viewBox="0 0 14 14" fill="none" xmlns="http://www.w3.org/2000/svg">
<path d="M12.5858 3.85824L10.1423 1.41426C10.0408 1.31265 9.92019 1.23204 9.78746 1.17705C9.65473 1.12206 9.51247 1.09375 9.36879 1.09375C9.22512 1.09375 9.08286 1.12206 8.95013 1.17705C8.8174 1.23204 8.69681 1.31265 8.59524 1.41426L1.85172 8.15832C1.74979 8.25959 1.66897 8.38009 1.61396 8.51283C1.55895 8.64557 1.53084 8.78791 1.53125 8.9316V11.3756C1.53125 11.6657 1.64649 11.9439 1.85161 12.149C2.05672 12.3541 2.33492 12.4693 2.625 12.4693H5.06899C5.21267 12.4697 5.35501 12.4416 5.48774 12.3866C5.62048 12.3316 5.74098 12.2508 5.84227 12.1489L12.5858 5.40481C12.7908 5.1997 12.906 4.92155 12.906 4.63152C12.906 4.3415 12.7908 4.06335 12.5858 3.85824ZM4.97657 11.1568H2.84375V9.02402L7.4375 4.43027L9.57032 6.56309L4.97657 11.1568ZM10.5 5.6334L8.36719 3.50059L9.37016 2.49762L11.503 4.63043L10.5 5.6334Z" fill="black"/>
</svg>
