<svg width="10" height="10" viewBox="0 0 10 10" fill="none" xmlns="http://www.w3.org/2000/svg">
<path d="M7.65625 3.75C7.65625 4.90117 6.71055 5.86133 5.46875 6.05703V6.09375C5.46875 6.21807 5.41936 6.3373 5.33146 6.42521C5.24355 6.51311 5.12432 6.5625 5 6.5625C4.87568 6.5625 4.75645 6.51311 4.66854 6.42521C4.58064 6.3373 4.53125 6.21807 4.53125 6.09375V5.625C4.53125 5.50068 4.58064 5.38145 4.66854 5.29354C4.75645 5.20564 4.87568 5.15625 5 5.15625C5.94766 5.15625 6.71875 4.52539 6.71875 3.75C6.71875 2.97461 5.94766 2.34375 5 2.34375C4.05234 2.34375 3.28125 2.97461 3.28125 3.75C3.28125 3.87432 3.23186 3.99355 3.14396 4.08146C3.05605 4.16936 2.93682 4.21875 2.8125 4.21875C2.68818 4.21875 2.56895 4.16936 2.48104 4.08146C2.39314 3.99355 2.34375 3.87432 2.34375 3.75C2.34375 2.45781 3.53516 1.40625 5 1.40625C6.46484 1.40625 7.65625 2.45781 7.65625 3.75ZM5 7.34375C4.84548 7.34375 4.69444 7.38957 4.56596 7.47541C4.43748 7.56126 4.33735 7.68327 4.27822 7.82603C4.21909 7.96878 4.20362 8.12587 4.23376 8.27741C4.26391 8.42896 4.33831 8.56817 4.44757 8.67743C4.55683 8.78669 4.69604 8.86109 4.84759 8.89124C4.99913 8.92138 5.15622 8.90591 5.29897 8.84678C5.44173 8.78765 5.56374 8.68752 5.64959 8.55904C5.73543 8.43056 5.78125 8.27952 5.78125 8.125C5.78125 7.9178 5.69894 7.71909 5.55243 7.57257C5.40591 7.42606 5.2072 7.34375 5 7.34375Z" fill="black"/>
</svg>
