<svg width="14" height="14" viewBox="0 0 14 14" fill="none" xmlns="http://www.w3.org/2000/svg">
<path d="M10.9688 2.32031H2.53125C2.13964 2.32031 1.76407 2.47588 1.48716 2.75279C1.21025 3.0297 1.05469 3.40527 1.05469 3.79688V9.70312C1.05469 10.0947 1.21025 10.4703 1.48716 10.7472C1.76407 11.0241 2.13964 11.1797 2.53125 11.1797H10.9688C11.1627 11.1797 11.3547 11.1415 11.5338 11.0673C11.713 10.9931 11.8757 10.8843 12.0128 10.7472C12.1499 10.6101 12.2587 10.4473 12.3329 10.2682C12.4071 10.089 12.4453 9.89703 12.4453 9.70312V3.79688C12.4453 3.60297 12.4071 3.41096 12.3329 3.23182C12.2587 3.05267 12.1499 2.8899 12.0128 2.75279C11.8757 2.61568 11.713 2.50691 11.5338 2.43271C11.3547 2.3585 11.1627 2.32031 10.9688 2.32031ZM2.53125 3.58594H10.9688C11.0247 3.58594 11.0783 3.60816 11.1179 3.64772C11.1575 3.68728 11.1797 3.74093 11.1797 3.79688V4.64062H8.4375C8.26967 4.64062 8.10871 4.7073 7.99003 4.82597C7.87136 4.94465 7.80469 5.10561 7.80469 5.27344C7.80469 5.55316 7.69357 5.82142 7.49578 6.01921C7.29798 6.21701 7.02972 6.32812 6.75 6.32812C6.47028 6.32812 6.20202 6.21701 6.00422 6.01921C5.80643 5.82142 5.69531 5.55316 5.69531 5.27344C5.69531 5.10561 5.62864 4.94465 5.50997 4.82597C5.39129 4.7073 5.23033 4.64062 5.0625 4.64062H2.32031V3.79688C2.32031 3.74093 2.34254 3.68728 2.38209 3.64772C2.42165 3.60816 2.47531 3.58594 2.53125 3.58594ZM10.9688 9.91406H2.53125C2.47531 9.91406 2.42165 9.89184 2.38209 9.85228C2.34254 9.81272 2.32031 9.75907 2.32031 9.70312V5.90625H4.51723C4.65472 6.3925 4.94718 6.82058 5.35018 7.12543C5.75318 7.43028 6.24469 7.59524 6.75 7.59524C7.25531 7.59524 7.74682 7.43028 8.14982 7.12543C8.55282 6.82058 8.84528 6.3925 8.98277 5.90625H11.1797V9.70312C11.1797 9.75907 11.1575 9.81272 11.1179 9.85228C11.0783 9.89184 11.0247 9.91406 10.9688 9.91406Z" fill="black"/>
</svg>
